<svg width="235" height="205" xmlns="http://www.w3.org/2000/svg" xmlns:xlink="http://www.w3.org/1999/xlink" xml:space="preserve" overflow="hidden"><g transform="translate(-630 -205)"><g><g><g><g><path d="M748.383 405.177 635.386 404.953 691.69 306.982Z" stroke="#FFFFFF" stroke-width="3" stroke-linecap="butt" stroke-linejoin="miter" stroke-miterlimit="8" stroke-opacity="1" fill="#F2AA84" fill-rule="evenodd" fill-opacity="1"/><path d="M691.5 307.5 805.5 307.5 748.5 405.5 727.5 369.396 727.341 369.536C720.526 373.46 711.81 371.131 707.875 364.334 703.94 357.538 706.276 348.847 713.091 344.923L713.238 344.874Z" stroke="#FFFFFF" stroke-width="3" stroke-linecap="butt" stroke-linejoin="miter" stroke-miterlimit="8" stroke-opacity="1" fill="#8ED973" fill-rule="evenodd" fill-opacity="1"/><path d="M804.919 306.982 861.223 404.953 748.226 405.177 769.378 368.539 765.362 364.997C762.033 360.59 761.46 354.443 764.395 349.359 767.331 344.275 772.941 341.697 778.422 342.378L783.498 344.084Z" stroke="#FFFFFF" stroke-width="3" stroke-linecap="butt" stroke-linejoin="miter" stroke-miterlimit="8" stroke-opacity="1" fill="#D86ECC" fill-rule="evenodd" fill-opacity="1"/><path d="M748.5 210.5 805.5 307.995 762.62 307.995 761.628 312.866C759.465 317.94 754.401 321.5 748.498 321.5 742.596 321.5 737.531 317.94 735.368 312.866L734.377 307.995 691.5 307.995Z" stroke="#FFFFFF" stroke-width="3" stroke-linecap="butt" stroke-linejoin="miter" stroke-miterlimit="8" stroke-opacity="1" fill="#61CBF4" fill-rule="evenodd" fill-opacity="1"/></g></g></g></g></g></svg>